<svg xmlns="http://www.w3.org/2000/svg" width="134" height="159" viewBox="0 0 134 159">
  <g id="Grupo_30" data-name="Grupo 30" transform="translate(-6578 1242)">
    <rect id="Rect치ngulo_18" data-name="Rect치ngulo 18" width="134" height="159" transform="translate(6578 -1242)" fill="none" opacity="0"/>
    <g id="Grupo_29" data-name="Grupo 29" transform="translate(5817.209 -1725.916)">
      <g id="Grupo_28" data-name="Grupo 28">
        <g id="Grupo_27" data-name="Grupo 27">
          <path id="Trazado_67" data-name="Trazado 67" d="M787.808,562.967c0-9.751.049-19.5-.017-29.254-.033-4.975,1.856-8.451,7.109-8.911,2.324-.2,2.608-1.618,3.039-3.177,1.449-5.243,3-10.464,4.219-15.763,1.1-4.806,3.945-6.964,8.758-6.946q15.349.056,30.7.005c4.861-.011,7.611,2.324,8.6,7.114.864,4.2,1.892,8.375,3.163,12.463.971,3.12,1.45,6.549,6.256,6.84,2.866.173,4.745,3.115,4.753,6.181.007,2.849,1,3.7,3.754,3.524,4.7-.307,7.125,1.882,6.741,6.826-.153,1.971-.017,3.964-.025,5.948-.024,5.979-1.157,7.438-7.084,7.427-3.241-.006-3.3,1.481-3.279,3.9.082,10.907-.036,21.817.064,32.724.048,5.28-1.452,9.182-7.407,9.676-2.04.169-2.166,1.775-2.672,3.078a94.771,94.771,0,0,0-4.3,15.73c-.911,4.529-3.349,6.752-8.23,6.656-10.559-.206-21.127-.179-31.688-.01-4.6.074-7.072-1.951-8-6.3A112.111,112.111,0,0,0,798,604.94c-.73-1.967-1.415-3.216-3.945-3.567-4.386-.61-6.269-3.792-6.259-8.16C787.82,583.131,787.8,573.049,787.808,562.967Z" fill="#020202"/>
          <path id="Trazado_68" data-name="Trazado 68" d="M792.561,563.42c0-9.59.127-19.183-.063-28.77-.077-3.882,1.285-5.19,5.182-5.158q28.484.232,56.968.005c3.858-.03,5.291,1.243,5.268,5.126q-.174,28.523,0,57.045c.022,3.83-1.335,5.26-5.225,5.232q-28.484-.2-56.968,0c-3.86.027-5.292-1.32-5.218-5.2C792.683,582.272,792.562,572.845,792.561,563.42Z" fill="#fefefe"/>
          <path id="Trazado_69" data-name="Trazado 69" d="M826.214,601.571c7.089,0,14.178.044,21.267-.023,2.191-.02,2.857.35,2.045,2.8-1.548,4.683-2.724,9.5-3.829,14.313-.6,2.628-1.75,4.029-4.63,4.005q-14.836-.121-29.675,0c-2.821.023-4.154-1.235-4.766-3.9-1.069-4.654-2.123-9.336-3.629-13.856-.936-2.808-.322-3.441,2.445-3.391C812.364,601.653,819.289,601.569,826.214,601.571Z" fill="#fdfdfd"/>
          <path id="Trazado_70" data-name="Trazado 70" d="M850.037,524.709c-15.233,0-30.234-.04-45.234.038-2.556.013-2.554-.95-1.958-2.975q2.093-7.11,3.8-14.332c.639-2.7,1.979-3.729,4.839-3.683,9.894.16,19.792.082,29.688.039,1.968-.009,3.567.217,4.141,2.521C846.815,512.363,848.406,518.387,850.037,524.709Z" fill="#fefefe"/>
          <path id="Trazado_71" data-name="Trazado 71" d="M864.366,545.223c.994-1.868-1.841-5.675,3.161-5.55,4.3.108,2.559,3.368,2.345,5.024-.257,1.978,2.529,5.7-2.511,5.85C862.7,550.684,865.228,547.17,864.366,545.223Z" fill="#fafafa"/>
          <path id="Trazado_72" data-name="Trazado 72" d="M826.129,571.064a19.34,19.34,0,0,1,13.658,4.929c1.35,1.158,2.319,2.594.852,4.207-1.309,1.441-2.623.546-3.88-.421-7.069-5.434-14.168-5.418-21.212.041-1.287,1-2.639,1.773-3.88.324-1.4-1.633-.381-3.078.966-4.221A19.164,19.164,0,0,1,826.129,571.064Z" fill="#070707"/>
          <path id="Trazado_73" data-name="Trazado 73" d="M844.078,556.014c-.478,2.955-2.053,4.767-5.231,4.66-2.918-.1-4.606-1.766-4.684-4.636-.086-3.158,1.759-4.939,4.851-4.974C842.132,551.029,843.737,552.916,844.078,556.014Z" fill="#070707"/>
          <path id="Trazado_74" data-name="Trazado 74" d="M813.286,560.735c-3.088-.249-4.921-1.8-4.841-5,.081-3.227,2.084-4.773,5.123-4.674a4.444,4.444,0,0,1,4.643,4.72C818.229,558.841,816.429,560.564,813.286,560.735Z" fill="#070707"/>
        </g>
      </g>
      <rect id="Rect치ngulo_17" data-name="Rect치ngulo 17" width="6" height="11" transform="translate(864.5 539.5)" fill="#fff" stroke="#000" stroke-miterlimit="10" stroke-width="0.886"/>
    </g>
  </g>
</svg>
