<svg xmlns="http://www.w3.org/2000/svg" width="122.827" height="22.265" viewBox="0 0 122.827 22.265">
  <g id="icono-rolex" transform="translate(-0.004 -44.089)">
    <g id="Grupo_231" data-name="Grupo 231" transform="translate(26.437 44.089)">
      <g id="Grupo_230" data-name="Grupo 230" transform="translate(0)">
        <g id="Grupo_229" data-name="Grupo 229">
          <path id="Trazado_2203" data-name="Trazado 2203" d="M204.874,236.543a11.133,11.133,0,1,0,11.28,11.135,11.26,11.26,0,0,0-11.28-11.135Zm4.687,17.561a5.407,5.407,0,0,1-1.3,1.364,4.718,4.718,0,0,1-2.8,1.089,5.321,5.321,0,0,1-.592.042,5.5,5.5,0,0,1-.6-.042,4.72,4.72,0,0,1-2.791-1.089,5.335,5.335,0,0,1-1.3-1.364,11.023,11.023,0,0,1-1.906-6.411,11.178,11.178,0,0,1,1.7-6.1,5.514,5.514,0,0,1,2.633-2.371l.027-.013a1.749,1.749,0,0,1,.165-.062,4.492,4.492,0,0,1,.457-.16,5.746,5.746,0,0,1,3.248,0c.157.047.307.1.462.157a1.21,1.21,0,0,0,.165.065.042.042,0,0,1,.028.013,5.519,5.519,0,0,1,2.628,2.371,11.16,11.16,0,0,1,1.7,6.1,11.03,11.03,0,0,1-1.921,6.411Z" transform="translate(-193.888 -236.543)" fill="#333"/>
          <path id="Trazado_2204" data-name="Trazado 2204" d="M341.365,253.162H339.8V256.3a3.475,3.475,0,0,1-3.47,3.393h-6.618V242.062h3.023v-1.569h-10.9v1.569h3.026v17.631h-3.026v1.571h19.54v-5.129h-.015v-2.973h0Z" transform="translate(-296.75 -239.711)" fill="#333"/>
          <path id="Trazado_2205" data-name="Trazado 2205" d="M457.5,240.52H436.958v1.571h2.963v17.634h-2.963V261.3h20.654v-7.478h-1.582v2.476h0a3.468,3.468,0,0,1-3.47,3.435h-7.782v-8.744h2.5a2.573,2.573,0,0,1,2.546,2.563.3.3,0,0,1,0,.057h0v.817h0v.33h1.429v-8.692H449.8v1h0v.057a2.456,2.456,0,0,1-2.548,2.426h-2.5v-7.45h7.8a3.468,3.468,0,0,1,3.455,3.433h0v2.139h1.582v-7.143h-.11Z" transform="translate(-389.048 -239.73)" fill="#333"/>
          <path id="Trazado_2206" data-name="Trazado 2206" d="M581.378,259.874c-1.5-.037-1.861-.5-3.026-1.841l-6.873-8.557,4.55-5.432h0c1.219-1.4,1.552-1.881,3.123-1.9h1.187v-1.519h-8.385v1.519h1.839a.709.709,0,0,1,.715.707.728.728,0,0,1-.132.415l-4.035,4.8-3.166-3.94-.66-.837a.705.705,0,0,1-.165-.442.717.717,0,0,1,.709-.714h1.8v-1.519H558.37v1.519h.5c1.337.062,1.721.517,2.773,1.724l6.086,7.578-5.479,6.538v-.013c-1.227,1.4-1.559,1.874-3.133,1.9h-1.279v1.512H566.8v-1.512h-2.208a.717.717,0,0,1-.715-.72.683.683,0,0,1,.165-.44l4.865-5.811,4.042,5.039.617.767a.748.748,0,0,1,.165.445.72.72,0,0,1-.72.72h-1.944v1.512h11.305v-1.512h-1Z" transform="translate(-485.981 -239.814)" fill="#333"/>
        </g>
      </g>
    </g>
    <path id="Trazado_2207" data-name="Trazado 2207" d="M84.473,259.569l-1.374-4a7.47,7.47,0,0,0-2.1-3.5A5.787,5.787,0,0,0,78.724,251a5.359,5.359,0,0,0-.849-10.648H61.937v1.564h2.921v17.651H61.9v1.571H72.711v-1.571H69.718v-8.482h3a8.163,8.163,0,0,1,1.959.3,5.421,5.421,0,0,1,1.484.565,4.64,4.64,0,0,1,1.537,1.614c.122.22.235.44.342.66a26.772,26.772,0,0,1,2,6.891h6.788v-1.574H84.471Zm-9.684-10.046H69.728v-7.6h5.059a3.8,3.8,0,1,1,0,7.6Z" transform="translate(-61.896 -195.52)" fill="#333"/>
  </g>
</svg>
