<svg xmlns="http://www.w3.org/2000/svg" width="166.93" height="22.265" viewBox="0 0 166.93 22.265">
  <g id="icono-longines" transform="translate(0.03 0.002)">
    <path id="Trazado_2182" data-name="Trazado 2182" d="M15.883,18.615c-.671,1.95-3.618,1.646-8.278,1.663V6.172a1.767,1.767,0,0,1,.247-1.163c.4-.577,1.675-.544,3.158-.544V1.89H-.018V4.469c.431,0,2.579-.2,2.883.619a2.668,2.668,0,0,1,.151,1.086v12.34a2.908,2.908,0,0,1-.116,1.2c-.21.374-.478.611-2.93.611v2.5H18.749V13.91h-2.2a20.294,20.294,0,0,1-.663,4.7Z" transform="translate(0 -1.263)" fill="#333"/>
    <path id="Trazado_2185" data-name="Trazado 2185" d="M211.687,5.506V19.093c0,1.448-1.542,1.181-2.97,1.237v2.532h10.642V20.326c-2.049,0-2.97.168-2.97-1.237V5.477c0-1.151,1.067-.953,2.955-.95V1.95h-10.63v2.6C210.326,4.549,211.687,4.326,211.687,5.506Z" transform="translate(-119.068 -1.296)" fill="#333"/>
    <path id="Trazado_2186" data-name="Trazado 2186" d="M356.159,9.471c-5.311-1.116-5.492-2.265-5.65-2.888a2.423,2.423,0,0,1,.366-1.9,3.94,3.94,0,0,1,3.361-1.327,6.568,6.568,0,0,1,6.875,5.964h2.2V1.282h-1.861l-1.091,1.539A10.016,10.016,0,0,0,354.231.75c-2.955,0-7.541,1.289-7.541,6.5,0,5.445,5.838,6.162,8.343,6.665,3.381.671,4.833,1.344,5.427,2.316a2.594,2.594,0,0,1-.742,3.183,7.734,7.734,0,0,1-6.294.3,7.269,7.269,0,0,1-4.376-5.969h-2.086v8.415h1.658l1.173-1.658a10.278,10.278,0,0,0,6.9,2.371c3.759,0,7.957-1.671,7.957-6.625C364.645,10.593,358,9.855,356.159,9.471Z" transform="translate(-197.75 -0.613)" fill="#333"/>
    <path id="Trazado_2187" data-name="Trazado 2187" d="M251.348,4.544h1.945c1.423-.057,1.366.6,1.366,1.289v9.254L245.569,1.94H237.08v2.6H238.9c1.19,0,1.289.641,1.324,1.675V18.546c0,2.084-.567,1.774-3.141,1.774v2.532h10.278V20.321c-2.891,0-3.631.309-3.631-1.576V7.474L254.186,22.85H258.1V5.746c0-.495-.022-1.237.888-1.237h2.247V1.94h-9.882Z" transform="translate(-135.235 -1.291)" fill="#333"/>
    <path id="Trazado_2188" data-name="Trazado 2188" d="M296.333,4.544c2.69,0,3.438-.287,3.438,1.237V18.89c0,1.636-.643,1.327-3.438,1.391V22.86h20.046V13.931h-2.359v2.537a3.546,3.546,0,0,1-4.079,3.772l-5.593.03V13.277s2.277-.215,3.076.525c.99.921.859,3.819.859,3.819h2.277V6.979h-2.252s-.057,2.7-.9,3.361a5.836,5.836,0,0,1-3.059.473V4.544h5.586a4.744,4.744,0,0,1,3.188.807,6.049,6.049,0,0,1,.99,3.764v1.47h2.264V1.94H296.328Z" transform="translate(-169.031 -1.291)" fill="#333"/>
    <path id="Trazado_2190" data-name="Trazado 2190" d="M113.788,4.506h1.943c1.423-.025,1.378.631,1.378,1.331v9.256L108,1.925H99.52V4.533h2.354c1.032.1.787.641.8,1.671V18.531c0,1.963-.374,1.774-3.136,1.774v2.532h10.273V20.306c-2.8,0-3.626.247-3.626-1.581V7.459l10.454,15.376h3.94V5.731c0-.512-.094-1.237.886-1.237h2.252V1.92h-9.929Z" transform="translate(-56.779 -1.281)" fill="#333"/>
    <path id="Trazado_2191" data-name="Trazado 2191" d="M68.489,5.831a11.063,11.063,0,0,0-7.3-5.106,15.223,15.223,0,0,0-2.955-.3A12.228,12.228,0,0,0,49.8,3.68a11.436,11.436,0,0,0-2.643,11.5,10.875,10.875,0,0,0,8.731,7.3,16.268,16.268,0,0,0,2.359.171,11.731,11.731,0,0,0,9.823-4.663,12.09,12.09,0,0,0,.423-12.164Zm-3.712,5.761c0,3.2-.624,6.779-3.841,8.021a7.454,7.454,0,0,1-2.722.4,7.162,7.162,0,0,1-2.755-.48c-2.854-1.22-3.712-4.727-3.764-7.934a9.157,9.157,0,0,1,2.9-7.563,6.229,6.229,0,0,1,3.663-1.007,6.435,6.435,0,0,1,3.735,1,8.838,8.838,0,0,1,2.782,7.563Z" transform="translate(-26.612 -0.43)" fill="#333"/>
    <path id="Trazado_2192" data-name="Trazado 2192" d="M160.007,21.509a9.954,9.954,0,0,0,5.074,1.237,11.384,11.384,0,0,0,6.8-2.148c.431.495.8,1.049,1.168,1.539H175.5v-7.3c.035-1.9.725-1.5,2.767-1.534V11.031H167.511V13.3c2.774.087,3.378-.369,3.438,1.552a4.648,4.648,0,0,1-3.153,5.009,4.95,4.95,0,0,1-5.719-1.289,12.825,12.825,0,0,1,.042-13.748,5.123,5.123,0,0,1,5.719-1.163,7.816,7.816,0,0,1,4.5,5.66h2.522V1.154H172.4l-.859,1.658a10.239,10.239,0,0,0-6.7-2.247A10.367,10.367,0,0,0,161,1.337a10.347,10.347,0,0,0-6.088,9.4,11.041,11.041,0,0,0,5.093,10.768Z" transform="translate(-88.375 -0.504)" fill="#333"/>
  </g>
</svg>
