<svg xmlns="http://www.w3.org/2000/svg" width="115.184" height="22.265" viewBox="0 0 115.184 22.265">
  <path id="icono-citizen" d="M112.628,2.211h1.148A1.924,1.924,0,0,1,115.7,3.935V18.323a1.924,1.924,0,0,1-1.927,1.725h-1.148v1.5h9.034V20.027h-1.15a1.924,1.924,0,0,1-1.926-1.725V3.926A1.924,1.924,0,0,1,120.512,2.2h1.148V.693h-9.031Zm-4.863,17.563a9.391,9.391,0,0,1-5.666.293,8.337,8.337,0,0,1-4.927-5.9A11.4,11.4,0,0,1,99.1,4.312a8.283,8.283,0,0,1,5.708-2.725,5.378,5.378,0,0,1,4.927,2.727l.6,1.791h1.343V2.174A10.783,10.783,0,0,0,104.671.031,11.086,11.086,0,0,0,95.5,3.652,13.35,13.35,0,0,0,93.476,13.7a10.231,10.231,0,0,0,10.416,8.47,8.007,8.007,0,0,0,7.223-2.668,5.4,5.4,0,0,0,1.013-2.939h-1.421a6.566,6.566,0,0,1-2.942,3.213ZM122.99.693V5.97h1.52v-1.4a2.064,2.064,0,0,1,2.316-2.259h3.311V18.293c0,1.232-.894,1.725-2.121,1.725H126.73v1.527h10.027V20.027h-1.306c-1.232,0-2.121-.505-2.121-1.725V2.309h3.311a2.064,2.064,0,0,1,2.316,2.259v1.4h1.5V.693Zm78.386,0V2.171h1.286a1.616,1.616,0,0,1,1.421,1.441V15.49L193.737.693h-5.706V2.171h.985a1.784,1.784,0,0,1,1.616,1.577V18.49a1.574,1.574,0,0,1-1.362,1.537h-1.207V21.6h7.184V20.067H194.04a1.688,1.688,0,0,1-1.478-1.577V4.549L204.34,21.525h1.811V3.576c0-.584.493-1.4,1.089-1.4h1.168V.7ZM141.6,2.211h1.168A1.924,1.924,0,0,1,144.7,3.935V18.323a1.924,1.924,0,0,1-1.927,1.725H141.6v1.5h9.054V20.027h-1.168a1.9,1.9,0,0,1-1.909-1.725V3.926A1.9,1.9,0,0,1,149.491,2.2h1.168V.693H141.6ZM185.21,17.416a2.781,2.781,0,0,1-2.582,2.552h-7.361v-8.78h4.595a1.9,1.9,0,0,1,1.724,1.909v1.168h1.52V6.135h-1.52V7.283a1.924,1.924,0,0,1-1.725,1.927h-4.595V2.174h7.477c.857,0,1.946.8,1.946,1.636V5.5h1.441V.693h-16.8V2.211h.985a1.924,1.924,0,0,1,1.926,1.725V18.293a1.924,1.924,0,0,1-1.926,1.725h-.985v1.518H186.7V15.647h-1.5v1.771Zm-18.457.175a2.343,2.343,0,0,1-2.1,2.084H156.1L167.61,2.184V.706H152.171V5.8h1.537V3.955c0-1.168.759-1.771,2.045-1.771h8.081L152.171,20.037v1.5h16.1v-5.93h-1.518v1.986Z" transform="translate(-93.223 0.009)" fill="#333"/>
</svg>
