<svg xmlns="http://www.w3.org/2000/svg" width="166.303" height="22.265" viewBox="0 0 166.303 22.265">
  <path id="icono-tag_heuer" d="M21.754,127.526V109.973h7.741v-4.078H8.5v4.078h7.756v17.554Zm51.755-.222a22.765,22.765,0,0,1-13.56-.575,10.569,10.569,0,0,1-5.834-8.383,10.937,10.937,0,0,1,4.5-10.352,15.454,15.454,0,0,1,14.415-.761v4.275c-3.233-1.482-8.1-2.361-11.2,0A6.938,6.938,0,0,0,63.8,123.421a11.73,11.73,0,0,0,4.848.41v-3.468H66.514v-4.2h7v11.147h0Zm21.148-9.776v10.062h2.085V106.058H94.656v9.8H81.235v-9.8H79.15v21.533h2.085V117.528Zm39.887,4.693a6.484,6.484,0,0,1-6.076,4.135,4.715,4.715,0,0,1-4.984-5.323V108.95h-2.075v11.638c0,7.047,5.273,7.439,6.738,7.439a7.637,7.637,0,0,0,6.407-3.236v2.794h2.085V108.953H134.56v13.271ZM174.8,110.8a6.622,6.622,0,0,0-4.28-2.146c-3.184,0-6.447,4.962-6.447,4.962V108.98h-2.085v18.633h2.077V115.757s2.952-5.125,5.775-5.125a6.493,6.493,0,0,1,3.831,2.07ZM35.882,123.429l-1.66,4.236H28.435l8.825-21.577h6.288L53.1,127.665H47.3l-1.768-4.236Zm7.973-3.922L40.5,111.44,37.4,119.5Zm59.051-1.959q-.02.319-.02.64a7.41,7.41,0,0,0,7.41,7.956,10.959,10.959,0,0,0,6.894-2.784v2.154a11.147,11.147,0,0,1-7.123,2.47,9.386,9.386,0,0,1-9.386-9.781c0-5.281,3.431-9.633,8.415-9.633a8.341,8.341,0,0,1,8.457,8.973H102.906Zm.259-1.7H115.1a5.827,5.827,0,0,0-6.014-5.372,6.19,6.19,0,0,0-5.911,5.367Zm40.05,1.7q-.02.319-.02.64a7.41,7.41,0,0,0,7.41,7.956,10.957,10.957,0,0,0,6.891-2.784v2.154a11.147,11.147,0,0,1-7.123,2.47,9.386,9.386,0,0,1-9.386-9.781c0-5.281,3.428-9.633,8.413-9.633a8.341,8.341,0,0,1,8.457,8.973H143.21Zm.259-1.7h11.932a5.827,5.827,0,0,0-6.014-5.372,6.192,6.192,0,0,0-5.908,5.367Z" transform="translate(-8.5 -105.806)" fill-rule="evenodd"/>
</svg>
