<svg xmlns="http://www.w3.org/2000/svg" width="136" height="58" viewBox="0 0 136 58">
  <g id="logo" transform="translate(-6061 -44)">
    <rect id="Rectángulo_12" data-name="Rectángulo 12" width="136" height="58" transform="translate(6061 44)" fill="none"/>
    <g id="Grupo_58" data-name="Grupo 58" transform="translate(5464.503 -360.396)">
      <circle id="Elipse_13" data-name="Elipse 13" cx="22.487" cy="22.487" r="22.487" transform="translate(603.497 411.396)" fill="none" stroke="#1d1d1f" stroke-miterlimit="10" stroke-width="3.086"/>
      <g id="Grupo_56" data-name="Grupo 56">
        <path id="Trazado_56" data-name="Trazado 56" d="M632.278,428.247h-5.161v13.409H624.85V428.247h-5.16V426.11h12.588Z" fill="#1d1d1f"/>
      </g>
      <g id="Grupo_57" data-name="Grupo 57" transform="translate(-1)">
        <path id="Trazado_57" data-name="Trazado 57" d="M682.308,426.11l-4.513,15.546h-2.246L672.2,430.039l-3.325,11.617h-2.246L662.1,426.11h2.375l3.282,11.767L671,426.132l2.375-.022,3.281,11.767,3.283-11.767Z" fill="#1d1d1f"/>
        <path id="Trazado_58" data-name="Trazado 58" d="M690.947,441.656v-1.663a4.813,4.813,0,0,1-4.3,1.986c-2.289,0-3.843-1.382-3.843-3.562a3.322,3.322,0,0,1,2.051-3.282,23.928,23.928,0,0,1,5.808-1.231c-.108-1.36-1.1-2.094-2.612-2.094a4.046,4.046,0,0,0-3.174,1.317l-1.361-1.489a6.048,6.048,0,0,1,4.729-1.965,5.165,5.165,0,0,1,3.239,1.187,4.659,4.659,0,0,1,1.446,3.735v7.061Zm-.259-5.916c-1.3.194-2.569.431-3.477.626-1.165.259-2.158.863-2.158,1.878a1.881,1.881,0,0,0,2.072,1.814,3.484,3.484,0,0,0,3.131-1.663,4.979,4.979,0,0,0,.432-2.655Z" fill="#1d1d1f"/>
        <path id="Trazado_59" data-name="Trazado 59" d="M698.937,436.949a4.362,4.362,0,0,0,.238,2.094,1.618,1.618,0,0,0,1.317.777,7.17,7.17,0,0,0,1.922-.086v1.922a8.588,8.588,0,0,1-2.959.086,2.9,2.9,0,0,1-2.31-1.468c-.561-.885-.453-1.922-.453-3.2V431.81h-2.246V430h2.246v-3.238h2.245V430h3.477v1.814h-3.477Z" fill="#1d1d1f"/>
        <path id="Trazado_60" data-name="Trazado 60" d="M712.153,433.861a3.318,3.318,0,0,0-1.1-1.511,2.946,2.946,0,0,0-1.749-.54,2.91,2.91,0,0,0-2.462,1.144,4.8,4.8,0,0,0-.777,2.872,4.728,4.728,0,0,0,.777,2.85,3.249,3.249,0,0,0,4.254.648,3.016,3.016,0,0,0,.993-1.425l2.31.561a5.286,5.286,0,0,1-1.879,2.591,5.015,5.015,0,0,1-3.216.928,5.084,5.084,0,0,1-4.275-1.9,6.72,6.72,0,0,1-1.361-4.253,6.5,6.5,0,0,1,1.361-4.232,5.228,5.228,0,0,1,4.3-1.921,5.3,5.3,0,0,1,2.98.755,4.6,4.6,0,0,1,2.094,2.807Z" fill="#1d1d1f"/>
        <path id="Trazado_61" data-name="Trazado 61" d="M727.052,436v5.657h-2.288v-5.571c0-1.49-.173-2.85-1.08-3.627a2.836,2.836,0,0,0-2.029-.648,2.942,2.942,0,0,0-1.706.626,2.794,2.794,0,0,0-.95,1.727,11.578,11.578,0,0,0-.151,2.375v5.118H716.58V426.11h2.009v5.311l.366-.431a4.328,4.328,0,0,1,2.959-1.3,4.783,4.783,0,0,1,3.6,1.08C726.944,432.026,727.074,434.056,727.052,436Z" fill="#1d1d1f"/>
      </g>
    </g>
  </g>
</svg>
